<svg xmlns="http://www.w3.org/2000/svg" xmlns:xlink="http://www.w3.org/1999/xlink" width="32" height="32"
    viewBox="0 0 32 32" fill="none">
    <path
        d="M16 13.146c-1.573 0-2.854 1.281-2.854 2.854s1.281 2.854 2.854 2.854 2.854-1.281 2.854-2.854-1.281-2.854-2.854-2.854z"
        fill="#00D8FF" />
    <path
        d="M16 7.823c-4.339 0-8.425 0.622-11.481 1.706-3.396 1.206-5.519 3.044-5.519 4.471 0 1.457 2.206 3.364 5.717 4.589 2.988 1.045 6.933 1.588 11.283 1.588 4.381 0 8.36-0.559 11.363-1.623 3.464-1.228 5.637-3.112 5.637-4.554 0-1.427-2.123-3.265-5.519-4.471-3.056-1.084-7.142-1.706-11.481-1.706z"
        stroke="#00D8FF" stroke-width="1" fill="none" />
    <path
        d="M10.454 10.061c-2.169 3.757-3.809 7.727-4.637 11.061-0.92 3.702-0.354 6.52 1.424 7.509 1.821 1.014 4.864 0.128 8.207-2.289 2.844-2.061 5.832-5.133 8.001-8.89 2.199-3.813 3.83-7.811 4.645-11.153 0.9-3.685 0.312-6.473-1.463-7.468-1.821-1.014-4.864-0.128-8.207 2.289-2.844 2.061-5.832 5.133-8.001 8.89z"
        stroke="#00D8FF" stroke-width="1" fill="none" />
    <path
        d="M10.454 21.939c-2.169-3.757-3.809-7.727-4.637-11.061-0.92-3.702-0.354-6.52 1.424-7.509 1.821-1.014 4.864-0.128 8.207 2.289 2.844 2.061 5.832 5.133 8.001 8.89 2.199 3.813 3.83 7.811 4.645 11.153 0.9 3.685 0.312 6.473-1.463 7.468-1.821 1.014-4.864 0.128-8.207-2.289-2.844-2.061-5.832-5.133-8.001-8.89z"
        stroke="#00D8FF" stroke-width="1" fill="none" />
</svg>  